<svg xmlns="http://www.w3.org/2000/svg" viewBox="0 0 3383.63 2825.08"><title>dravet-logo-2018</title><path d="M2339.8,504c398.52,0,612.92,450.43,612.92,811.63S2661.09,1685,2387.44,1685s-471.64,79-471.64,169,126.37,165,126.39,272.86c0,56.21-55.46,120.84-126.39,120.84-165.62,0-400.21-326.7-474.94-326.7s-237.92,84.9-347.67,79.47c-86.22-4.27-114-11.22-114-56.92s145.52-77.94,145.7-152.1c.26-106.41-649.11-129.83-650.65-503.55-.87-211.62,191.86-301.35,351.43-301.35,308.55,0,499.45,69,607.69,69S1941.29,504,2339.8,504Z" transform="translate(-22.31 -0.71)" fill="#ab3cc2"/><path d="M1769,1130c162.29,0,196.45,97.86,196.45,152.77,0,189.46-527.76,300.68-527.76,398.54,0-76.71-335.35-126.83-335.35-272.26,0-128.43,119.07-170.41,195.62-170.41s139.73,60.06,139.73,60.06S1597.51,1130,1769,1130Z" transform="translate(-22.31 -0.71)" fill="#ffef20"/><path d="M1353.11,980.67c0-162.27-153.81-503-442.72-503-148.9,0-227.15,92.23-227.15,208.66,0,85.43,62.17,182.76,195.18,182.76,131,0,161.27-118.42,161.27-172.76S997.13,585.2,909.41,585.2c-63.72,0-117.64,39.16-117.64,101.15s54,90.69,77.64,90.69c93.64,0,103.2-101.69,53.24-101.69" transform="translate(-22.31 -0.71)" fill="none" stroke="#ab3cc1" stroke-linecap="round" stroke-width="50"/><path d="M1476.67,942.73s-88.26-329.22-88.26-534.46S1546,25.71,1719.58,25.71c231.62,0,293.51,141.91,293.51,246.32,0,124.41-84.41,227.07-218.91,227.07-114.5,0-210.49-72.92-210.49-181.82,0-128.9,99.94-166.24,163.71-166.24,93.77,0,143.6,70.56,143.61,129.46s-40.07,106.19-87.82,106.19c-34.49,0-109.24-11-109.24-84.62,0-51.58,46.28-52.28,46.28-52.28" transform="translate(-22.31 -0.71)" fill="none" stroke="#ab3cc1" stroke-linecap="round" stroke-width="50"/><path d="M184.55,2530.21c0,148.55-36.5,195.7-98.87,195.7H22.31V2380.64c0-6.08,2.54-9.63,13.69-9.63H85.18C151.59,2371,184.55,2407,184.55,2530.21ZM86.7,2409H63.38v277.84H86.19c26.36,0,51.21-20.28,51.21-160.72C137.4,2432.36,120.67,2409,86.7,2409Z" transform="translate(-22.31 -0.71)" fill="#ab3cc2"/><path d="M288,2467.34c25.86,0,35.49,7.61,35.49,21.29,0,5.07-1,15.72-4.56,24.34a51,51,0,0,0-24.34-6.08c-11.15,0-23.83,3.55-33.46,11.66l-.51,198.75c0,8.62-.51,8.62-41.57,8.62V2490.16C238.79,2476,263.13,2467.34,288,2467.34Z" transform="translate(-22.31 -0.71)" fill="#ab3cc2"/><path d="M350.33,2481c8.62-5.58,38.53-13.69,77.06-13.69,43.6,0,62.87,16.22,62.87,61.85v26.87c0,58.31-.51,119.15-3,157.68-13.69,8.11-37.52,17.24-70.47,17.24-37,.51-72.5-7.61-72.5-77.06,0-70.47,33.46-83.15,67.43-83.15,11.15,0,26.87,1.52,37,6.59v-40.05c0-23.83-11.15-29.91-31.43-29.91-25.35,0-52.22,5.07-66.92,11.15-4.56-8.11-5.58-17.24-5.58-23.32C344.75,2489.65,346.27,2483.57,350.33,2481Zm74.53,120.67c-20.28,0-37.52,7.1-37.52,51.21,0,37,13.18,43.6,33,43.6,11.15,0,22.31-4.06,26.87-8.62,1.52-16.73,1.52-54.25,1.52-81.63C442.09,2603.22,432,2601.7,424.86,2601.7Z" transform="translate(-22.31 -0.71)" fill="#ab3cc2"/><path d="M562.25,2472.41l16.22,81.12c10.65,52.73,19.77,128.27,19.77,128.27h1s8.62-75.54,19.27-128.78l13.18-71.49c1.52-9.13,2-9.13,43.6-9.13l-58.31,255c-7.6,1.52-22.31,1.52-28.9,1.52-9.63,0-14.7-10.65-18.25-24.84l-51.71-219C515.6,2472.41,517.12,2472.41,562.25,2472.41Z" transform="translate(-22.31 -0.71)" fill="#ab3cc2"/><path d="M837,2675.21c3,7.6,4.06,19.77,4.06,27.88,0,15.72-31.94,27.89-70.47,27.89-47.15,0-81.12-19.77-81.12-118.64,0-126.75,45.63-145,90.25-145,42.59,0,64.39,26.87,64.39,81.63,0,22.31-1.52,47.66-6.08,65.91-33,6.59-80.11,7.61-105.46,8.11,1.52,53.74,16.22,67.94,47.15,67.94C800,2690.93,820.31,2684.85,837,2675.21ZM732.6,2589.53c19.77,0,51.71-.51,69-5.58,2-9.13,2.54-20.79,2.54-30.42-.51-36.5-7.1-50.19-29.41-50.19C753.89,2503.34,735.64,2521.08,732.6,2589.53Z" transform="translate(-22.31 -0.71)" fill="#ab3cc2"/><path d="M866.44,2507.9c0-31.43.51-35.49,9.13-35.49h25.86v-77.06c0-14.2,7.6-14.2,41.07-14.2v91.26H994.2c0,31.94,0,35.49-8.11,35.49h-43.6v147.54c0,21.8,0,40.05,18.25,40.05,11.66,0,19.27-2.54,29.41-7.61a74.39,74.39,0,0,1,3,20.28c0,18.76-23.83,22.82-43.6,22.82-43.1,0-48.17-29.91-48.17-75.54V2507.9Z" transform="translate(-22.31 -0.71)" fill="#ab3cc2"/><path d="M1247.18,2495.73c0,6.59-3.55,14.7-9.13,20.79-15.21-9.13-30.42-13.18-49.69-13.18-23.83,0-40.05,8.62-40.05,24.34,0,9.13,3,16.73,20.28,31.43l47.15,38c21.8,21.29,29.91,38,29.91,63.38,0,45.12-31.94,70.47-83.66,70.47-36,0-61.85-8.11-61.85-25.86a44.83,44.83,0,0,1,7.1-23.83c14.7,8.62,30.93,12.67,50.7,12.67,25.86,0,41.07-11.15,41.07-31.43,0-13.69-5.07-25.86-20.28-39.55l-49.18-42.08c-22.81-18.76-28.9-37-28.9-53.74,0-35.49,25.86-59.83,82.64-59.83C1235.52,2467.34,1247.18,2485.59,1247.18,2495.73Z" transform="translate(-22.31 -0.71)" fill="#ab3cc2"/><path d="M1312.07,2472.41l27.38,120.67c8.11,40.56,13.69,90.25,13.69,90.25s5.07-49.18,12.17-90.75l22.31-108c2-12.17,2.53-12.17,44.62-12.17l-62.36,267.19c-15.21,64.39-34,84.16-70.47,84.16-30.93,0-41.57-8.11-41.57-19.77,0-7.6,2-17.75,6.08-23.32,6.59,4.56,20.28,8.11,31.94,8.11,15.72,0,29.41-13.18,37-54.76L1272,2483.57C1269,2472.41,1269,2472.41,1312.07,2472.41Z" transform="translate(-22.31 -0.71)" fill="#ab3cc2"/><path d="M1543.26,2467.34c53.24,0,71.49,18.76,71.49,67.94v182c0,8.62-1,8.62-42.59,8.62V2547.45c0-31.94-5.07-44.11-29.91-44.11-11.15,0-26.87,3-38,9.13v204.83c0,8.62-1,8.62-41.07,8.62V2484.58C1482.92,2476,1516.39,2467.34,1543.26,2467.34Z" transform="translate(-22.31 -0.71)" fill="#ab3cc2"/><path d="M1804.36,2353.27v362.51c-16.73,8.11-41.07,15.21-72.5,15.21-44.11,0-82.13-12.68-82.13-122.7,0-100.39,34-140.95,77.57-140.95,15.72,0,27.38,3.55,36,10.14V2372C1763.29,2353.27,1770.89,2353.27,1804.36,2353.27ZM1740,2503.34c-22.31,0-44.62,17.24-44.62,100.39,0,76,14.2,90.25,38,90.25,11.15,0,21.8-2,29.91-7.6V2509.93C1756.7,2504.86,1750.61,2503.34,1740,2503.34Z" transform="translate(-22.31 -0.71)" fill="#ab3cc2"/><path d="M1918.42,2467.34c25.86,0,35.49,7.61,35.49,21.29,0,5.07-1,15.72-4.56,24.34a51,51,0,0,0-24.34-6.08c-11.15,0-23.83,3.55-33.46,11.66l-.51,198.75c0,8.62-.51,8.62-41.57,8.62V2490.16C1869.25,2476,1893.58,2467.34,1918.42,2467.34Z" transform="translate(-22.31 -0.71)" fill="#ab3cc2"/><path d="M2047.71,2467.34c53.24,0,79.09,27.38,79.09,130.3,0,94.3-29.41,133.34-83.66,133.34-51.71,0-79.6-17.75-79.6-131.82C1963.55,2506.38,1995,2467.34,2047.71,2467.34ZM2044.16,2696c21.8,0,37.52-18.76,37.52-97.85,0-80.61-11.15-94.81-35.49-94.81-22.31,0-38,17.75-38,96.84C2008.16,2683.83,2021.34,2696,2044.16,2696Z" transform="translate(-22.31 -0.71)" fill="#ab3cc2"/><path d="M2405.14,2538.83v178.46c0,8.62-1.52,8.62-41.07,8.62V2538.32c0-24.34-4.56-34.48-24.84-34.48a60.9,60.9,0,0,0-34,9.63v203.82c0,8.62.51,8.62-40.56,8.62h-.51V2537.31c0-24.84-1.52-34-24.84-34a73.8,73.8,0,0,0-34.48,8.62v205.34c0,8.62-1,8.62-41.07,8.62V2484.07a186.37,186.37,0,0,1,76.56-16.73c21.8,0,36,5.58,45.63,15.72,17.75-9.63,41.57-15.72,62.36-15.72C2399.06,2467.34,2405.14,2493.2,2405.14,2538.83Z" transform="translate(-22.31 -0.71)" fill="#ab3cc2"/><path d="M2709.33,2371v346.28c0,5.58-3,8.62-8.62,8.62h-30.93L2612,2586.49c-9.13-22.82-35.49-103.43-48.17-143.48,3,33,5.58,129.79,5.58,151.59v122.7c0,8.62-.51,8.62-41.57,8.62V2379.12c0-5.58,2.54-8.11,8.62-8.11h31.43l56.78,136.89c10.14,26.36,36,105,48.17,143v-1.52c-3.55-30.42-4.56-126.75-4.56-150.58V2379.12C2668.26,2371,2668.77,2371,2709.33,2371Z" transform="translate(-22.31 -0.71)" fill="#ab3cc2"/><path d="M2829,2467.34c53.24,0,79.09,27.38,79.09,130.3,0,94.3-29.41,133.34-83.66,133.34-51.71,0-79.6-17.75-79.6-131.82C2744.81,2506.38,2776.24,2467.34,2829,2467.34ZM2825.42,2696c21.8,0,37.52-18.76,37.52-97.85,0-80.61-11.15-94.81-35.49-94.81-22.31,0-38,17.75-38,96.84C2789.43,2683.83,2802.61,2696,2825.42,2696Z" transform="translate(-22.31 -0.71)" fill="#ab3cc2"/><path d="M3013.52,2467.34c25.86,0,35.49,7.61,35.49,21.29,0,5.07-1,15.72-4.56,24.34a51,51,0,0,0-24.34-6.08c-11.15,0-23.83,3.55-33.46,11.66l-.51,198.75c0,8.62-.51,8.62-41.57,8.62V2490.16C2964.34,2476,2988.67,2467.34,3013.52,2467.34Z" transform="translate(-22.31 -0.71)" fill="#ab3cc2"/><path d="M3222.91,2506.89a87.1,87.1,0,0,1-18.25-2.54c12.17,11.66,19.27,29.91,19.27,54.76,0,53.74-23.32,88.73-82.13,88.73a106.13,106.13,0,0,1-22.82-2c-6.59,6.59-13.18,15.72-13.18,22.31,0,9.13,25.86,11.15,59.83,15.72,40.05,6.08,66.92,19.27,66.92,59.32,0,43.6-29.41,82.64-96.84,82.64-68.45,0-81.63-28.9-81.63-55.26,0-24.34,16.73-46.64,39-61.35-19.77-5.58-31.94-14.2-31.43-27.38.51-14.2,12.68-30.42,32.45-46.14-23.83-15.21-31.43-43.09-31.43-75.54,0-67.43,34.48-92.78,84.16-92.78a79,79,0,0,1,24.84,4.06H3233c2,3.55,4.06,10.14,4.06,19.27C3237.1,2501.82,3231.53,2506.89,3222.91,2506.89Zm-89.74,209.39c-3-.51-6.08-.51-8.62-1-15.21,11.15-27.89,28.9-27.89,45.63,0,15.72,8.11,26.87,42.59,26.87,36,0,51.71-21.29,51.71-39C3191,2725.91,3177.78,2719.32,3133.17,2716.28Zm49.18-166.8c0-37-12.67-51.71-37-51.71-21.8,0-39,16.73-39,61.35,0,36,6.08,57.29,37.52,57.29C3170.69,2616.4,3182.35,2593.59,3182.35,2549.48Z" transform="translate(-22.31 -0.71)" fill="#ab3cc2"/><path d="M3398.84,2675.21c3,7.6,4.06,19.77,4.06,27.88,0,15.72-31.94,27.89-70.47,27.89-47.15,0-81.12-19.77-81.12-118.64,0-126.75,45.63-145,90.25-145,42.59,0,64.39,26.87,64.39,81.63,0,22.31-1.52,47.66-6.08,65.91-33,6.59-80.11,7.61-105.46,8.11,1.52,53.74,16.22,67.94,47.15,67.94C3361.83,2690.93,3382.11,2684.85,3398.84,2675.21Zm-104.44-85.68c19.77,0,51.71-.51,69-5.58,2-9.13,2.54-20.79,2.54-30.42-.51-36.5-7.1-50.19-29.41-50.19C3315.69,2503.34,3297.44,2521.08,3294.4,2589.53Z" transform="translate(-22.31 -0.71)" fill="#ab3cc2"/></svg>