<svg viewBox="0 0 3427 2844" version="1.1" xmlns="http://www.w3.org/2000/svg" xmlns:xlink="http://www.w3.org/1999/xlink">
    <g stroke="none" stroke-width="1" fill="none" fill-rule="evenodd">
        <g transform="translate(474.000000, 25.000000)">
            <path d="M1865.80408,479.008706 C2264.31898,479.008706 2478.71994,929.439265 2478.71989,1290.64293 C2478.71985,1651.8466 2187.09412,1660.04398 1913.44031,1660.04398 C1639.7865,1660.04398 1441.80133,1739.06132 1441.80133,1829.00639 C1441.80133,1918.95145 1568.17438,1993.96745 1568.18744,2101.86332 C1568.19424,2158.07603 1512.724,2222.70402 1441.80133,2222.70402 C1276.18616,2222.70401 1041.59369,1896.00883 966.862475,1896.00883 C892.131261,1896.00883 728.9375,1980.91032 619.195207,1975.47559 C532.975484,1971.20576 505.165415,1964.25804 505.165415,1918.55314 C505.165415,1872.84824 650.685618,1840.61272 650.865488,1766.45097 C651.123564,1660.04398 1.75508898,1636.62473 0.218750106,1262.89842 C-0.651181167,1051.28091 192.079432,961.550851 351.649576,961.550851 C660.195191,961.550851 851.103333,1030.58842 959.338245,1030.58843 C1067.57316,1030.58843 1467.28919,479.008706 1865.80408,479.008706 Z" fill="#AB3CC2"></path>
            <path d="M1294.95454,1105.00657 C1457.24409,1105.00657 1491.40676,1202.8642 1491.40644,1257.77483 C1491.40534,1447.23725 963.645211,1558.45902 963.645211,1656.31302 C963.645211,1579.60041 628.29377,1529.4805 628.29377,1384.05461 C628.29377,1255.62332 747.365245,1213.64497 823.915002,1213.64497 C900.46476,1213.64497 963.645219,1273.70622 963.645219,1273.70622 C963.645219,1273.70622 1123.5061,1105.00657 1294.95454,1105.00657 Z" fill="#FFEF20"></path>
            <path d="M879.105964,955.672617 C879.105964,793.401522 725.292332,452.68524 436.389708,452.685251 C287.487084,452.685257 209.236024,544.919426 209.23603,661.348627 C209.236034,746.777828 271.41075,844.113242 404.414436,844.11323 C535.418122,844.113218 565.687448,725.688612 565.68743,671.348629 C565.687413,617.008646 523.132466,560.19774 435.414436,560.197741 C371.696405,560.197742 317.775702,599.353632 317.775697,661.348627 C317.775693,723.343622 371.772702,752.039088 395.414432,752.039093 C489.056162,752.039111 498.613075,650.348627 448.651529,650.348627" stroke="#AB3CC1" stroke-width="50" stroke-linecap="round"></path>
            <path d="M1002.66863,917.730062 C1002.66863,917.730062 914.404652,588.510949 914.404646,383.266074 C914.404641,178.021199 1071.96598,0.712039769 1245.58473,0.712047621 C1477.20347,0.712058097 1539.08999,142.61836 1539.08997,247.027768 C1539.08995,371.437176 1454.68095,474.093731 1320.17932,474.093751 C1205.6777,474.093768 1109.68533,401.177499 1109.68532,292.274684 C1109.68532,163.371868 1209.62193,126.030733 1273.39557,126.030734 C1367.1692,126.030735 1417.00067,196.592502 1417.00068,255.490059 C1417.00069,314.387615 1376.92741,361.675792 1329.18565,361.675797 C1294.69554,361.675801 1219.94843,350.636658 1219.94843,277.057852 C1219.94844,225.479046 1266.22397,224.782315 1266.22397,224.782315" stroke="#AB3CC1" stroke-width="50" stroke-linecap="round"></path>
        </g>
        <path d="M84.336,2376.6 C100.734749,2376.6 115.125271,2379.10997 127.508,2384.13 C139.890729,2389.15003 150.181626,2397.68394 158.381,2409.732 C166.580374,2421.78006 172.68798,2437.92757 176.704,2458.175 C180.72002,2478.42243 182.728,2503.77318 182.728,2534.228 C182.728,2571.04152 180.552688,2601.83054 176.202,2626.596 C171.851312,2651.36146 165.492708,2671.27392 157.126,2686.334 C148.759292,2701.39408 138.468394,2712.1033 126.253,2718.462 C114.037606,2724.8207 100.232744,2728 84.838,2728 L22.088,2728 L22.088,2386.138 C22.088,2383.12598 22.9246583,2380.78334 24.598,2379.11 C26.2713417,2377.43666 29.9526382,2376.6 35.642,2376.6 L84.336,2376.6 Z M136.042,2530.212 C136.042,2507.11988 135.03801,2488.04408 133.03,2472.984 C131.02199,2457.92392 127.926354,2446.04338 123.743,2437.342 C119.559646,2428.64062 114.288698,2422.61668 107.93,2419.27 C101.571302,2415.92332 94.2087085,2414.25 85.842,2414.25 L62.75,2414.25 L62.75,2689.346 L85.34,2689.346 C91.6986985,2689.346 97.9736357,2687.58902 104.165,2684.075 C110.356364,2680.56098 115.794643,2673.19839 120.48,2661.987 C125.165357,2650.77561 128.930319,2634.71177 131.775,2613.795 C134.619681,2592.87823 136.042,2565.01751 136.042,2530.212 L136.042,2530.212 Z M219.876,2494.57 C229.581382,2487.87663 240.290608,2482.43835 252.004,2478.255 C263.717392,2474.07165 275.765271,2471.98 288.148,2471.98 C300.865397,2471.98 309.901307,2473.82065 315.256,2477.502 C320.610693,2481.18335 323.288,2486.37063 323.288,2493.064 C323.288,2495.74135 322.953337,2499.33898 322.284,2503.857 C321.614663,2508.37502 320.443342,2512.80931 318.77,2517.16 C311.072628,2513.14398 303.040708,2511.136 294.674,2511.136 C288.984638,2511.136 283.211696,2512.05632 277.355,2513.897 C271.498304,2515.73768 266.227357,2518.66598 261.542,2522.682 L261.04,2719.968 C261.04,2721.97601 260.789003,2723.56566 260.287,2724.737 C259.784997,2725.90834 258.279013,2726.745 255.769,2727.247 C253.258987,2727.749 249.159362,2728 243.47,2728 L219.876,2728 L219.876,2494.57 Z M344.372,2499.59 C344.372,2496.91265 344.790329,2494.31901 345.627,2491.809 C346.463671,2489.29899 347.88599,2487.20734 349.894,2485.534 C354.244688,2482.85665 363.280598,2479.92835 377.002,2476.749 C390.723402,2473.56965 407.121905,2471.98 426.198,2471.98 C447.951442,2471.98 463.764284,2476.49795 473.637,2485.534 C483.509716,2494.57005 488.446,2510.46655 488.446,2533.224 L488.446,2559.83 L488.446,2603.253 C488.446,2617.81107 488.278668,2631.86693 487.944,2645.421 C487.609332,2658.97507 487.274668,2671.77594 486.94,2683.824 C486.605332,2695.87206 486.103337,2706.58129 485.434,2715.952 C478.740633,2719.96802 469.537392,2723.81665 457.824,2727.498 C446.110608,2731.17935 432.054749,2733.02 415.656,2733.02 C406.619955,2733.02 397.751377,2732.35067 389.05,2731.012 C380.348623,2729.67333 372.651367,2726.32669 365.958,2720.972 C359.264633,2715.61731 353.91002,2707.83638 349.894,2697.629 C345.87798,2687.42162 343.87,2673.78409 343.87,2656.716 C343.87,2639.31325 345.794314,2625.25739 349.643,2614.548 C353.491686,2603.83861 358.511636,2595.47203 364.703,2589.448 C370.894364,2583.42397 378.00596,2579.40801 386.038,2577.4 C394.07004,2575.39199 402.269292,2574.388 410.636,2574.388 C416.325362,2574.388 422.600299,2574.80633 429.461,2575.643 C436.321701,2576.47967 442.261975,2578.23665 447.282,2580.914 L447.282,2541.256 C447.282,2529.54261 444.604693,2521.67802 439.25,2517.662 C433.895307,2513.64598 426.19805,2511.638 416.158,2511.638 C403.440603,2511.638 391.05806,2512.72566 379.01,2514.901 C366.96194,2517.07634 357.256703,2519.66998 349.894,2522.682 C347.551322,2518.66598 346.045337,2514.56635 345.376,2510.383 C344.706663,2506.19965 344.372,2502.60202 344.372,2499.59 L344.372,2499.59 Z M447.282,2609.528 C443.935317,2607.85466 440.086688,2606.68334 435.736,2606.014 C431.385312,2605.34466 427.369352,2605.01 423.688,2605.01 C418.667975,2605.01 413.899023,2605.59566 409.381,2606.767 C404.862977,2607.93834 400.930683,2610.36465 397.584,2614.046 C394.237317,2617.72735 391.56001,2622.83097 389.552,2629.357 C387.54399,2635.88303 386.54,2644.66794 386.54,2655.712 C386.54,2664.74805 387.292992,2672.11064 388.799,2677.8 C390.305008,2683.48936 392.480319,2687.92365 395.325,2691.103 C398.169681,2694.28235 401.59998,2696.37399 405.616,2697.378 C409.63202,2698.38201 414.149975,2698.884 419.17,2698.884 C424.859362,2698.884 430.130309,2698.04734 434.983,2696.374 C439.835691,2694.70066 443.433322,2692.69268 445.776,2690.35 C446.110668,2686.33398 446.361666,2681.06303 446.529,2674.537 C446.696334,2668.01097 446.863666,2661.0667 447.031,2653.704 C447.198334,2646.3413 447.282,2638.81137 447.282,2631.114 L447.282,2609.528 L447.282,2609.528 Z M516.056,2489.55 C515.386663,2486.53798 515.219332,2484.11168 515.554,2482.271 C515.888668,2480.43032 517.478319,2479.17534 520.323,2478.506 C523.167681,2477.83666 527.685636,2477.41833 533.877,2477.251 C540.068364,2477.08367 548.685945,2477 559.73,2477 L575.794,2557.32 C578.471347,2570.37207 580.981322,2584.34426 583.324,2599.237 C585.666678,2614.12974 587.674658,2627.9346 589.348,2640.652 C591.35601,2655.37741 593.36399,2669.93526 595.372,2684.326 L596.376,2684.326 C598.049342,2669.60059 599.88999,2654.87541 601.898,2640.15 C603.571342,2627.4326 605.495656,2613.71141 607.671,2598.986 C609.846344,2584.26059 612.272653,2570.20473 614.95,2556.818 L628.504,2486.036 C628.838668,2483.69332 629.340663,2481.93634 630.01,2480.765 C630.679337,2479.59366 632.436319,2478.757 635.281,2478.255 C638.125681,2477.753 642.308972,2477.41833 647.831,2477.251 C653.353028,2477.08367 661.301281,2477 671.676,2477 L613.946,2729.506 C610.264648,2730.17534 605.41203,2730.59367 599.388,2730.761 C593.36397,2730.92833 588.678683,2731.012 585.332,2731.012 C580.646643,2731.012 576.881681,2728.66936 574.037,2723.984 C571.192319,2719.29864 568.933342,2713.44204 567.26,2706.414 L516.056,2489.55 Z M784.124,2471.98 C826.626879,2471.98 847.878,2498.9204 847.878,2552.802 C847.878,2563.84606 847.459671,2575.22461 846.623,2586.938 C845.786329,2598.65139 844.36401,2609.02595 842.356,2618.062 C833.654623,2619.73534 824.451382,2621.07399 814.746,2622.078 C805.040618,2623.08201 795.419048,2623.91866 785.881,2624.588 C776.342952,2625.25734 767.390708,2625.67567 759.024,2625.843 C750.657291,2626.01033 743.46203,2626.094 737.438,2626.094 C737.772668,2639.48073 739.027656,2650.52462 741.203,2659.226 C743.378344,2667.92738 746.306648,2674.78797 749.988,2679.808 C753.669352,2684.82803 758.354638,2688.34199 764.044,2690.35 C769.733362,2692.35801 776.426628,2693.362 784.124,2693.362 C794.16405,2693.362 804.036618,2691.93968 813.742,2689.095 C823.447382,2686.25032 832.650623,2682.48536 841.352,2677.8 C842.690673,2681.48135 843.610997,2685.99931 844.113,2691.354 C844.615003,2696.70869 844.866,2701.39398 844.866,2705.41 C844.866,2709.42602 843.025352,2713.10732 839.344,2716.454 C835.662648,2719.80068 830.642698,2722.72899 824.284,2725.239 C817.925302,2727.74901 810.562708,2729.67333 802.196,2731.012 C793.829291,2732.35067 784.960714,2733.02 775.59,2733.02 C763.876608,2733.02 753.083716,2731.51402 743.211,2728.502 C733.338284,2725.48998 724.888035,2719.71704 717.86,2711.183 C710.831965,2702.64896 705.31002,2690.68474 701.294,2675.29 C697.27798,2659.89526 695.27,2639.98279 695.27,2615.552 C695.27,2584.09318 697.863641,2558.90976 703.051,2540.001 C708.238359,2521.09224 714.931626,2506.61805 723.131,2496.578 C731.330374,2486.53795 740.784613,2479.92835 751.494,2476.749 C762.203387,2473.56965 773.079945,2471.98 784.124,2471.98 L784.124,2471.98 Z M779.606,2507.622 C774.585975,2507.622 769.733357,2508.87699 765.048,2511.387 C760.362643,2513.89701 756.095686,2518.41497 752.247,2524.941 C748.398314,2531.46703 745.219013,2540.16828 742.709,2551.045 C740.198987,2561.92172 738.609337,2575.89391 737.94,2592.962 L754.004,2592.962 C760.02803,2592.962 766.135636,2592.711 772.327,2592.209 C778.518364,2591.707 784.542304,2591.12134 790.399,2590.452 C796.255696,2589.78266 801.359312,2588.77867 805.71,2587.44 C806.714005,2582.75464 807.383332,2577.73469 807.718,2572.38 C808.052668,2567.02531 808.22,2562.00536 808.22,2557.32 C807.885332,2539.24791 805.71002,2526.44704 801.694,2518.917 C797.67798,2511.38696 790.315387,2507.622 779.606,2507.622 L779.606,2507.622 Z M904.102,2512.14 L869.966,2512.14 C869.966,2504.44263 870.049666,2498.25136 870.217,2493.566 C870.384334,2488.88064 870.718997,2485.28301 871.221,2482.773 C871.723003,2480.26299 872.643327,2478.67334 873.982,2478.004 C875.320673,2477.33466 876.99399,2477 879.002,2477 L904.102,2477 L904.102,2400.696 C904.102,2397.34932 904.687661,2394.67201 905.859,2392.664 C907.030339,2390.65599 909.121985,2389.23367 912.134,2388.397 C915.146015,2387.56033 919.329307,2387.05833 924.684,2386.891 C930.038693,2386.72367 936.899291,2386.64 945.266,2386.64 L945.266,2477 L996.47,2477 C996.47,2485.03204 996.386334,2491.30698 996.219,2495.825 C996.051666,2500.34302 995.717003,2503.85699 995.215,2506.367 C994.712997,2508.87701 993.960005,2510.46666 992.956,2511.136 C991.951995,2511.80534 990.44601,2512.14 988.438,2512.14 L945.266,2512.14 L945.266,2658.222 C945.266,2663.57669 945.349666,2668.68031 945.517,2673.533 C945.684334,2678.38569 946.353661,2682.56898 947.525,2686.083 C948.696339,2689.59702 950.453322,2692.44166 952.796,2694.617 C955.138678,2696.79234 958.652643,2697.88 963.338,2697.88 C969.027362,2697.88 974.047312,2697.29434 978.398,2696.123 C982.748688,2694.95166 987.433975,2693.02735 992.454,2690.35 C993.123337,2693.02735 993.792663,2696.03932 994.462,2699.386 C995.131337,2702.73268 995.466,2706.41398 995.466,2710.43 C995.466,2715.11536 994.127347,2718.88032 991.45,2721.725 C988.772653,2724.56968 985.342354,2726.82866 981.159,2728.502 C976.975646,2730.17534 972.374025,2731.34666 967.354,2732.016 C962.333975,2732.68534 957.314025,2733.02 952.294,2733.02 C941.584613,2733.02 933.050698,2731.26302 926.692,2727.749 C920.333302,2724.23498 915.480683,2719.21503 912.134,2712.689 C908.787317,2706.16297 906.612005,2698.29838 905.608,2689.095 C904.603995,2679.89162 904.102,2669.60072 904.102,2658.222 L904.102,2512.14 Z M1185.222,2371.58 C1209.31812,2371.58 1226.30228,2374.00631 1236.175,2378.859 C1246.04772,2383.71169 1250.984,2389.65196 1250.984,2396.68 C1250.984,2400.36135 1250.23101,2404.29365 1248.725,2408.477 C1247.21899,2412.66035 1244.62535,2416.59265 1240.944,2420.274 C1237.26265,2417.59665 1231.07138,2414.83568 1222.37,2411.991 C1213.66862,2409.14632 1203.46139,2407.724 1191.748,2407.724 C1176.68792,2407.724 1164.80738,2410.81964 1156.106,2417.011 C1147.40462,2423.20236 1143.054,2431.65261 1143.054,2442.362 C1143.054,2451.73271 1144.97831,2460.0993 1148.827,2467.462 C1152.67569,2474.8247 1158.44863,2483.02395 1166.146,2492.06 L1220.362,2553.806 C1226.7207,2561.50337 1232.07531,2568.7823 1236.426,2575.643 C1240.77669,2582.5037 1244.29065,2589.3643 1246.968,2596.225 C1249.64535,2603.0857 1251.48599,2609.9463 1252.49,2616.807 C1253.49401,2623.6677 1253.996,2630.94663 1253.996,2638.644 C1253.996,2651.3614 1252.49002,2663.40928 1249.478,2674.788 C1246.46598,2686.16672 1241.5297,2696.20662 1234.669,2704.908 C1227.8083,2713.60938 1218.60506,2720.46997 1207.059,2725.49 C1195.51294,2730.51003 1181.20609,2733.02 1164.138,2733.02 C1141.38055,2733.02 1124.73105,2729.75703 1114.189,2723.231 C1103.64695,2716.70497 1098.376,2709.92804 1098.376,2702.9 C1098.376,2698.88398 1099.21266,2694.19869 1100.886,2688.844 C1102.55934,2683.48931 1105.23665,2678.46936 1108.918,2673.784 C1114.27269,2678.46936 1121.21696,2682.56898 1129.751,2686.083 C1138.28504,2689.59702 1148.57594,2691.354 1160.624,2691.354 C1178.69609,2691.354 1191.4133,2686.66871 1198.776,2677.298 C1206.1387,2667.92729 1209.82,2655.54474 1209.82,2640.15 C1209.82,2628.77128 1207.72835,2618.22938 1203.545,2608.524 C1199.36165,2598.81862 1191.74806,2587.6074 1180.704,2574.89 L1130.002,2516.156 C1118.62328,2502.09993 1110.59136,2489.46639 1105.906,2478.255 C1101.22064,2467.04361 1098.878,2455.58139 1098.878,2443.868 C1098.878,2422.78389 1106.15693,2405.46507 1120.715,2391.911 C1135.27307,2378.35693 1156.77519,2371.58 1185.222,2371.58 L1185.222,2371.58 Z M1277.59,2488.044 C1276.92066,2485.36665 1276.586,2483.27501 1276.586,2481.769 C1276.586,2480.26299 1277.84099,2479.17534 1280.351,2478.506 C1282.86101,2477.83666 1286.96064,2477.41833 1292.65,2477.251 C1298.33936,2477.08367 1306.53861,2477 1317.248,2477 L1344.356,2596.476 C1346.36401,2605.84671 1348.12099,2615.38462 1349.627,2625.09 C1351.13301,2634.79538 1352.47166,2643.83129 1353.643,2652.198 C1354.81434,2660.56471 1355.73466,2667.75997 1356.404,2673.784 C1357.07334,2679.80803 1357.57533,2683.65666 1357.91,2685.33 C1357.91,2684.32599 1358.24466,2680.8957 1358.914,2675.039 C1359.58334,2669.1823 1360.41999,2662.07071 1361.424,2653.704 C1362.42801,2645.33729 1363.68299,2636.05038 1365.189,2625.843 C1366.69501,2615.63562 1368.28466,2605.67938 1369.958,2595.974 L1392.046,2489.048 C1392.38067,2486.03598 1392.96633,2483.69334 1393.803,2482.02 C1394.63967,2480.34666 1396.48032,2479.17534 1399.325,2478.506 C1402.16968,2477.83666 1406.43664,2477.41833 1412.126,2477.251 C1417.81536,2477.08367 1425.84728,2477 1436.222,2477 L1374.476,2741.554 C1370.79465,2757.61808 1366.77869,2770.92095 1362.428,2781.463 C1358.07731,2792.00505 1353.14103,2800.53897 1347.619,2807.065 C1342.09697,2813.59103 1335.73837,2818.19265 1328.543,2820.87 C1321.34763,2823.54735 1313.23205,2824.886 1304.196,2824.886 C1289.13592,2824.886 1278.59403,2823.04535 1272.57,2819.364 C1266.54597,2815.68265 1263.534,2810.99736 1263.534,2805.308 C1263.534,2801.62665 1264.03599,2797.52702 1265.04,2793.009 C1266.04401,2788.49098 1267.54999,2784.89335 1269.558,2782.216 C1272.90468,2784.55868 1277.58997,2786.48299 1283.614,2787.989 C1289.63803,2789.49501 1295.49464,2790.248 1301.184,2790.248 C1308.88137,2790.248 1315.99297,2786.39937 1322.519,2778.702 C1329.04503,2771.00463 1334.14865,2756.78144 1337.83,2736.032 L1277.59,2488.044 Z M1466.844,2489.048 C1471.86403,2487.03999 1477.5533,2484.94834 1483.912,2482.773 C1490.2707,2480.59766 1496.96396,2478.75701 1503.992,2477.251 C1511.02004,2475.74499 1518.13163,2474.49001 1525.327,2473.486 C1532.52237,2472.48199 1539.46663,2471.98 1546.16,2471.98 C1572.5988,2471.98 1591.00528,2477.08362 1601.38,2487.291 C1611.75472,2497.49838 1616.942,2514.81721 1616.942,2539.248 L1616.942,2719.968 C1616.942,2721.97601 1616.691,2723.56566 1616.189,2724.737 C1615.687,2725.90834 1614.09735,2726.745 1611.42,2727.247 C1608.74265,2727.749 1604.55936,2728 1598.87,2728 L1574.774,2728 L1574.774,2551.296 C1574.774,2535.23192 1572.93335,2523.93703 1569.252,2517.411 C1565.57065,2510.88497 1557.3714,2507.622 1544.654,2507.622 C1539.29931,2507.622 1533.1917,2508.37499 1526.331,2509.881 C1519.4703,2511.38701 1513.19536,2513.64598 1507.506,2516.658 L1507.506,2719.968 C1507.506,2721.97601 1507.255,2723.56566 1506.753,2724.737 C1506.251,2725.90834 1504.66135,2726.745 1501.984,2727.247 C1499.30665,2727.749 1495.29069,2728 1489.936,2728 L1466.844,2728 L1466.844,2489.048 Z M1765.032,2514.148 C1761.68532,2511.47065 1758.33868,2509.71367 1754.992,2508.877 C1751.64532,2508.04033 1747.29469,2507.622 1741.94,2507.622 C1736.25064,2507.622 1730.81236,2508.96065 1725.625,2511.638 C1720.43764,2514.31535 1715.75235,2519.25163 1711.569,2526.447 C1707.38565,2533.64237 1704.03901,2543.76593 1701.529,2556.818 C1699.01899,2569.87007 1697.764,2586.60323 1697.764,2607.018 C1697.764,2625.75943 1698.60066,2640.98661 1700.274,2652.7 C1701.94734,2664.41339 1704.45732,2673.53297 1707.804,2680.059 C1711.15068,2686.58503 1715.08298,2690.93566 1719.601,2693.111 C1724.11902,2695.28634 1729.38997,2696.374 1735.414,2696.374 C1741.10336,2696.374 1746.45797,2695.78834 1751.478,2694.617 C1756.49803,2693.44566 1761.01598,2691.52135 1765.032,2688.844 L1765.032,2514.148 Z M1765.032,2377.604 C1765.032,2372.91864 1765.61766,2369.32101 1766.789,2366.811 C1767.96034,2364.30099 1770.05198,2362.46034 1773.064,2361.289 C1776.07602,2360.11766 1780.17564,2359.44833 1785.363,2359.281 C1790.55036,2359.11367 1797.32729,2359.03 1805.694,2359.03 L1805.694,2717.96 C1797.32729,2721.97602 1787.20373,2725.48998 1775.323,2728.502 C1763.44227,2731.51402 1749.63741,2733.02 1733.908,2733.02 C1722.86394,2733.02 1712.40572,2731.76501 1702.533,2729.255 C1692.66028,2726.74499 1683.95904,2721.30671 1676.429,2712.94 C1668.89896,2704.57329 1662.95869,2692.35808 1658.608,2676.294 C1654.25731,2660.22992 1652.082,2638.64414 1652.082,2611.536 C1652.082,2586.77054 1654.08998,2565.51942 1658.106,2547.782 C1662.12202,2530.04458 1667.64396,2515.57039 1674.672,2504.359 C1681.70004,2493.14761 1689.89929,2484.94836 1699.27,2479.761 C1708.64071,2474.57364 1718.68061,2471.98 1729.39,2471.98 C1744.45008,2471.98 1756.33062,2475.32663 1765.032,2482.02 L1765.032,2377.604 Z M1852.38,2494.57 C1862.08538,2487.87663 1872.79461,2482.43835 1884.508,2478.255 C1896.22139,2474.07165 1908.26927,2471.98 1920.652,2471.98 C1933.3694,2471.98 1942.40531,2473.82065 1947.76,2477.502 C1953.11469,2481.18335 1955.792,2486.37063 1955.792,2493.064 C1955.792,2495.74135 1955.45734,2499.33898 1954.788,2503.857 C1954.11866,2508.37502 1952.94734,2512.80931 1951.274,2517.16 C1943.57663,2513.14398 1935.54471,2511.136 1927.178,2511.136 C1921.48864,2511.136 1915.7157,2512.05632 1909.859,2513.897 C1904.0023,2515.73768 1898.73136,2518.66598 1894.046,2522.682 L1893.544,2719.968 C1893.544,2721.97601 1893.293,2723.56566 1892.791,2724.737 C1892.289,2725.90834 1890.78301,2726.745 1888.273,2727.247 C1885.76299,2727.749 1881.66336,2728 1875.974,2728 L1852.38,2728 L1852.38,2494.57 Z M1973.864,2602.5 C1973.864,2556.65044 1981.14293,2523.4351 1995.701,2502.853 C2010.25907,2482.2709 2030.7572,2471.98 2057.196,2471.98 C2070.24807,2471.98 2081.71028,2473.90431 2091.583,2477.753 C2101.45572,2481.60169 2109.5713,2488.46228 2115.93,2498.335 C2122.2887,2508.20772 2127.05765,2521.42692 2130.237,2537.993 C2133.41635,2554.55908 2135.006,2575.55921 2135.006,2600.994 C2135.006,2647.84757 2127.97807,2681.5649 2113.922,2702.147 C2099.86593,2722.7291 2079.45147,2733.02 2052.678,2733.02 C2039.62593,2733.02 2028.24738,2731.51402 2018.542,2728.502 C2008.83662,2725.48998 2000.63737,2719.38238 1993.944,2710.179 C1987.25063,2700.97562 1982.23068,2687.75642 1978.884,2670.521 C1975.53732,2653.28558 1973.864,2630.61214 1973.864,2602.5 L1973.864,2602.5 Z M2018.04,2603.504 C2018.04,2624.25344 2018.79299,2640.81927 2020.299,2653.202 C2021.80501,2665.58473 2024.06398,2675.12263 2027.076,2681.816 C2030.08802,2688.50937 2033.85298,2692.94366 2038.371,2695.119 C2042.88902,2697.29434 2047.99264,2698.382 2053.682,2698.382 C2059.03669,2698.382 2063.97298,2697.04335 2068.491,2694.366 C2073.00902,2691.68865 2076.94132,2686.6687 2080.288,2679.306 C2083.63468,2671.9433 2086.22832,2662.07073 2088.069,2649.688 C2089.90968,2637.30527 2090.83,2621.24143 2090.83,2601.496 C2090.83,2581.4159 2090.07701,2565.26839 2088.571,2553.053 C2087.06499,2540.83761 2084.88968,2531.38337 2082.045,2524.69 C2079.20032,2517.99663 2075.60269,2513.47868 2071.252,2511.136 C2066.90131,2508.79332 2061.71403,2507.622 2055.69,2507.622 C2050.00064,2507.622 2044.89702,2508.96065 2040.379,2511.638 C2035.86098,2514.31535 2031.92868,2519.16796 2028.582,2526.196 C2025.23532,2533.22404 2022.64168,2543.01294 2020.801,2555.563 C2018.96032,2568.11306 2018.04,2584.09324 2018.04,2603.504 L2018.04,2603.504 Z M2269.04,2532.722 C2268.70533,2523.68595 2267.03202,2517.24369 2264.02,2513.395 C2261.00798,2509.54631 2254.48205,2507.622 2244.442,2507.622 C2232.72861,2507.622 2221.35006,2510.46664 2210.306,2516.156 L2210.306,2719.968 C2210.306,2721.97601 2210.055,2723.56566 2209.553,2724.737 C2209.051,2725.90834 2207.46135,2726.745 2204.784,2727.247 C2202.10665,2727.749 2198.00703,2728 2192.485,2728 L2169.644,2728 L2169.644,2488.546 C2180.68806,2483.52597 2192.5686,2479.51002 2205.286,2476.498 C2218.0034,2473.48598 2231.38993,2471.98 2245.446,2471.98 C2256.15539,2471.98 2265.1913,2473.31865 2272.554,2475.996 C2279.9167,2478.67335 2285.94064,2482.52197 2290.626,2487.542 C2299.32738,2482.85664 2309.19994,2479.09168 2320.244,2476.247 C2331.28806,2473.40232 2341.99728,2471.98 2352.372,2471.98 C2364.75473,2471.98 2374.71096,2473.56965 2382.241,2476.749 C2389.77104,2479.92835 2395.46031,2484.52997 2399.309,2490.554 C2403.15769,2496.57803 2405.66766,2503.94062 2406.839,2512.642 C2408.01034,2521.34338 2408.596,2531.38328 2408.596,2542.762 L2408.596,2719.968 C2408.596,2721.97601 2408.345,2723.56566 2407.843,2724.737 C2407.341,2725.90834 2405.75135,2726.745 2403.074,2727.247 C2400.39665,2727.749 2396.29703,2728 2390.775,2728 L2367.934,2728 L2367.934,2542.26 C2367.934,2530.21194 2366.34435,2521.51069 2363.165,2516.156 C2359.98565,2510.80131 2353.37605,2508.124 2343.336,2508.124 C2337.64664,2508.124 2332.04103,2508.79333 2326.519,2510.132 C2320.99697,2511.47067 2315.39136,2513.98065 2309.702,2517.662 L2309.702,2719.968 C2309.702,2721.97601 2309.53467,2723.56566 2309.2,2724.737 C2308.86533,2725.90834 2307.44301,2726.745 2304.933,2727.247 C2302.42299,2727.749 2298.40703,2728 2292.885,2728 L2269.04,2728 L2269.04,2532.722 Z M2612.91,2589.95 C2610.56732,2584.26064 2607.38802,2575.47573 2603.372,2563.595 C2599.35598,2551.71427 2595.00536,2538.82974 2590.32,2524.941 C2585.63464,2511.05226 2581.03302,2497.16374 2576.515,2483.275 C2571.99698,2469.38626 2568.23202,2457.58938 2565.22,2447.884 C2565.88934,2455.91604 2566.55866,2467.29459 2567.228,2482.02 C2567.89734,2496.74541 2568.483,2511.80526 2568.985,2527.2 C2569.487,2542.59474 2569.82167,2556.9016 2569.989,2570.121 C2570.15633,2583.3404 2570.24,2592.62731 2570.24,2597.982 L2570.24,2719.968 C2570.24,2721.97601 2569.989,2723.56566 2569.487,2724.737 C2568.985,2725.90834 2567.47901,2726.745 2564.969,2727.247 C2562.45899,2727.749 2558.44303,2728 2552.921,2728 L2529.578,2728 L2529.578,2385.134 C2529.578,2379.44464 2532.42264,2376.6 2538.112,2376.6 L2569.236,2376.6 L2625.46,2512.14 C2627.80268,2518.83337 2631.06565,2528.12027 2635.249,2540.001 C2639.43235,2551.88173 2643.86664,2564.6826 2648.552,2578.404 C2653.23736,2592.1254 2657.75531,2605.76293 2662.106,2619.317 C2666.45669,2632.87107 2670.13798,2644.33329 2673.15,2653.704 L2673.15,2652.198 C2672.14599,2644.8353 2671.393,2633.95874 2670.891,2619.568 C2670.389,2605.17726 2669.887,2590.36841 2669.385,2575.141 C2668.883,2559.91359 2668.54833,2545.60673 2668.381,2532.22 C2668.21367,2518.83327 2668.13,2509.12803 2668.13,2503.104 L2668.13,2385.134 C2668.13,2383.12599 2668.381,2381.53634 2668.883,2380.365 C2669.385,2379.19366 2670.97465,2378.357 2673.652,2377.855 C2676.32935,2377.353 2680.42897,2377.01833 2685.951,2376.851 C2691.47303,2376.68367 2699.25395,2376.6 2709.294,2376.6 L2709.294,2719.968 C2709.294,2725.32269 2706.44936,2728 2700.76,2728 L2670.138,2728 L2612.91,2589.95 Z M2742.928,2602.5 C2742.928,2556.65044 2750.20693,2523.4351 2764.765,2502.853 C2779.32307,2482.2709 2799.8212,2471.98 2826.26,2471.98 C2839.31207,2471.98 2850.77428,2473.90431 2860.647,2477.753 C2870.51972,2481.60169 2878.6353,2488.46228 2884.994,2498.335 C2891.3527,2508.20772 2896.12165,2521.42692 2899.301,2537.993 C2902.48035,2554.55908 2904.07,2575.55921 2904.07,2600.994 C2904.07,2647.84757 2897.04207,2681.5649 2882.986,2702.147 C2868.92993,2722.7291 2848.51547,2733.02 2821.742,2733.02 C2808.68993,2733.02 2797.31138,2731.51402 2787.606,2728.502 C2777.90062,2725.48998 2769.70137,2719.38238 2763.008,2710.179 C2756.31463,2700.97562 2751.29468,2687.75642 2747.948,2670.521 C2744.60132,2653.28558 2742.928,2630.61214 2742.928,2602.5 L2742.928,2602.5 Z M2787.104,2603.504 C2787.104,2624.25344 2787.85699,2640.81927 2789.363,2653.202 C2790.86901,2665.58473 2793.12798,2675.12263 2796.14,2681.816 C2799.15202,2688.50937 2802.91698,2692.94366 2807.435,2695.119 C2811.95302,2697.29434 2817.05664,2698.382 2822.746,2698.382 C2828.10069,2698.382 2833.03698,2697.04335 2837.555,2694.366 C2842.07302,2691.68865 2846.00532,2686.6687 2849.352,2679.306 C2852.69868,2671.9433 2855.29232,2662.07073 2857.133,2649.688 C2858.97368,2637.30527 2859.894,2621.24143 2859.894,2601.496 C2859.894,2581.4159 2859.14101,2565.26839 2857.635,2553.053 C2856.12899,2540.83761 2853.95368,2531.38337 2851.109,2524.69 C2848.26432,2517.99663 2844.66669,2513.47868 2840.316,2511.136 C2835.96531,2508.79332 2830.77803,2507.622 2824.754,2507.622 C2819.06464,2507.622 2813.96102,2508.96065 2809.443,2511.638 C2804.92498,2514.31535 2800.99268,2519.16796 2797.646,2526.196 C2794.29932,2533.22404 2791.70568,2543.01294 2789.865,2555.563 C2788.02432,2568.11306 2787.104,2584.09324 2787.104,2603.504 L2787.104,2603.504 Z M2938.206,2494.57 C2947.91138,2487.87663 2958.62061,2482.43835 2970.334,2478.255 C2982.04739,2474.07165 2994.09527,2471.98 3006.478,2471.98 C3019.1954,2471.98 3028.23131,2473.82065 3033.586,2477.502 C3038.94069,2481.18335 3041.618,2486.37063 3041.618,2493.064 C3041.618,2495.74135 3041.28334,2499.33898 3040.614,2503.857 C3039.94466,2508.37502 3038.77334,2512.80931 3037.1,2517.16 C3029.40263,2513.14398 3021.37071,2511.136 3013.004,2511.136 C3007.31464,2511.136 3001.5417,2512.05632 2995.685,2513.897 C2989.8283,2515.73768 2984.55736,2518.66598 2979.872,2522.682 L2979.37,2719.968 C2979.37,2721.97601 2979.119,2723.56566 2978.617,2724.737 C2978.115,2725.90834 2976.60901,2726.745 2974.099,2727.247 C2971.58899,2727.749 2967.48936,2728 2961.8,2728 L2938.206,2728 L2938.206,2494.57 Z M3150.552,2471.98 C3153.89868,2471.98 3157.83098,2472.31466 3162.349,2472.984 C3166.86702,2473.65334 3171.30131,2474.65733 3175.652,2475.996 L3235.892,2475.996 C3236.89601,2477.66934 3237.81633,2480.17932 3238.653,2483.526 C3239.48967,2486.87268 3239.908,2490.88864 3239.908,2495.574 C3239.908,2505.94872 3235.22271,2511.136 3225.852,2511.136 C3221.16664,2511.136 3215.1427,2510.29934 3207.78,2508.626 C3213.46936,2514.31536 3218.07098,2521.67795 3221.585,2530.714 C3225.09902,2539.75005 3226.856,2550.45927 3226.856,2562.842 C3226.856,2589.61547 3220.58106,2610.95025 3208.031,2626.847 C3195.48094,2642.74375 3174.64815,2650.692 3145.532,2650.692 C3136.16129,2650.692 3128.63136,2650.02267 3122.942,2648.684 C3119.59532,2652.03068 3116.58335,2655.71198 3113.906,2659.728 C3111.22865,2663.74402 3109.89,2667.42532 3109.89,2670.772 C3109.89,2673.11468 3111.39598,2675.03899 3114.408,2676.545 C3117.42002,2678.05101 3121.60331,2679.30599 3126.958,2680.31 C3132.31269,2681.31401 3138.58763,2682.31799 3145.783,2683.322 C3152.97837,2684.32601 3160.75929,2685.32999 3169.126,2686.334 C3179.16605,2688.00734 3188.20196,2690.09899 3196.234,2692.609 C3204.26604,2695.11901 3211.2103,2698.63298 3217.067,2703.151 C3222.9237,2707.66902 3227.44165,2713.27463 3230.621,2719.968 C3233.80035,2726.66137 3235.39,2735.02795 3235.39,2745.068 C3235.39,2755.77739 3233.54935,2766.06828 3229.868,2775.941 C3226.18665,2785.81372 3220.41371,2794.51496 3212.549,2802.045 C3204.68429,2809.57504 3194.64439,2815.59898 3182.429,2820.117 C3170.21361,2824.63502 3155.73942,2826.894 3139.006,2826.894 C3122.27258,2826.894 3108.63505,2825.30435 3098.093,2822.125 C3087.55095,2818.94565 3079.3517,2814.67869 3073.495,2809.324 C3067.6383,2803.96931 3063.70601,2798.1127 3061.698,2791.754 C3059.68999,2785.3953 3058.686,2778.86937 3058.686,2772.176 C3058.686,2759.79327 3062.3673,2748.49838 3069.73,2738.291 C3077.0927,2728.08362 3086.12861,2719.2987 3096.838,2711.936 C3087.13262,2709.25865 3079.51903,2705.66102 3073.997,2701.143 C3068.47497,2696.62498 3065.88133,2691.01937 3066.216,2684.326 C3066.55067,2677.63263 3069.56264,2670.35371 3075.252,2662.489 C3080.94136,2654.62429 3088.63862,2646.84337 3098.344,2639.146 C3086.63061,2631.44863 3078.51502,2620.9904 3073.997,2607.771 C3069.47898,2594.5516 3067.22,2579.91008 3067.22,2563.846 C3067.22,2547.11258 3069.22798,2532.88939 3073.244,2521.176 C3077.26002,2509.46261 3082.9493,2500.00837 3090.312,2492.813 C3097.6747,2485.61763 3106.45962,2480.34668 3116.667,2477 C3126.87438,2473.65332 3138.16927,2471.98 3150.552,2471.98 L3150.552,2471.98 Z M3149.046,2502.1 C3138.33661,2502.1 3129.21704,2506.70162 3121.687,2515.905 C3114.15696,2525.10838 3110.392,2540.75389 3110.392,2562.842 C3110.392,2571.87805 3110.89399,2579.90996 3111.898,2586.938 C3112.90201,2593.96604 3114.74265,2599.90631 3117.42,2604.759 C3120.09735,2609.61169 3123.86231,2613.29299 3128.715,2615.803 C3133.56769,2618.31301 3139.84263,2619.568 3147.54,2619.568 C3160.92673,2619.568 3170.63197,2614.04606 3176.656,2603.002 C3182.68003,2591.95794 3185.692,2575.39211 3185.692,2553.304 C3185.692,2534.89724 3182.59636,2521.76171 3176.405,2513.897 C3170.21364,2506.03229 3161.09406,2502.1 3149.046,2502.1 L3149.046,2502.1 Z M3136.998,2718.462 C3135.32466,2718.462 3133.81867,2718.37833 3132.48,2718.211 C3131.14133,2718.04367 3129.63534,2717.79267 3127.962,2717.458 C3120.5993,2723.14736 3114.24069,2730.00796 3108.886,2738.04 C3103.53131,2746.07204 3100.854,2754.27129 3100.854,2762.638 C3100.854,2766.65402 3101.43966,2770.25165 3102.611,2773.431 C3103.78234,2776.61035 3105.87398,2779.37132 3108.886,2781.714 C3111.89802,2784.05668 3116.16497,2785.89733 3121.687,2787.236 C3127.20903,2788.57467 3134.32062,2789.244 3143.022,2789.244 C3152.05805,2789.244 3159.7553,2788.07268 3166.114,2785.73 C3172.4727,2783.38732 3177.74365,2780.29169 3181.927,2776.443 C3186.11035,2772.59431 3189.20599,2768.41102 3191.214,2763.893 C3193.22201,2759.37498 3194.226,2754.94069 3194.226,2750.59 C3194.226,2744.90064 3193.30568,2740.21535 3191.465,2736.534 C3189.62432,2732.85265 3186.52869,2729.75701 3182.178,2727.247 C3177.82731,2724.73699 3171.9707,2722.81267 3164.608,2721.474 C3157.2453,2720.13533 3148.04206,2719.13134 3136.998,2718.462 L3136.998,2718.462 Z M3349.344,2471.98 C3391.84688,2471.98 3413.098,2498.9204 3413.098,2552.802 C3413.098,2563.84606 3412.67967,2575.22461 3411.843,2586.938 C3411.00633,2598.65139 3409.58401,2609.02595 3407.576,2618.062 C3398.87462,2619.73534 3389.67138,2621.07399 3379.966,2622.078 C3370.26062,2623.08201 3360.63905,2623.91866 3351.101,2624.588 C3341.56295,2625.25734 3332.61071,2625.67567 3324.244,2625.843 C3315.87729,2626.01033 3308.68203,2626.094 3302.658,2626.094 C3302.99267,2639.48073 3304.24766,2650.52462 3306.423,2659.226 C3308.59834,2667.92738 3311.52665,2674.78797 3315.208,2679.808 C3318.88935,2684.82803 3323.57464,2688.34199 3329.264,2690.35 C3334.95336,2692.35801 3341.64663,2693.362 3349.344,2693.362 C3359.38405,2693.362 3369.25662,2691.93968 3378.962,2689.095 C3388.66738,2686.25032 3397.87062,2682.48536 3406.572,2677.8 C3407.91067,2681.48135 3408.831,2685.99931 3409.333,2691.354 C3409.835,2696.70869 3410.086,2701.39398 3410.086,2705.41 C3410.086,2709.42602 3408.24535,2713.10732 3404.564,2716.454 C3400.88265,2719.80068 3395.8627,2722.72899 3389.504,2725.239 C3383.1453,2727.74901 3375.78271,2729.67333 3367.416,2731.012 C3359.04929,2732.35067 3350.18071,2733.02 3340.81,2733.02 C3329.09661,2733.02 3318.30372,2731.51402 3308.431,2728.502 C3298.55828,2725.48998 3290.10804,2719.71704 3283.08,2711.183 C3276.05196,2702.64896 3270.53002,2690.68474 3266.514,2675.29 C3262.49798,2659.89526 3260.49,2639.98279 3260.49,2615.552 C3260.49,2584.09318 3263.08364,2558.90976 3268.271,2540.001 C3273.45836,2521.09224 3280.15163,2506.61805 3288.351,2496.578 C3296.55037,2486.53795 3306.00461,2479.92835 3316.714,2476.749 C3327.42339,2473.56965 3338.29994,2471.98 3349.344,2471.98 L3349.344,2471.98 Z M3344.826,2507.622 C3339.80597,2507.622 3334.95336,2508.87699 3330.268,2511.387 C3325.58264,2513.89701 3321.31569,2518.41497 3317.467,2524.941 C3313.61831,2531.46703 3310.43901,2540.16828 3307.929,2551.045 C3305.41899,2561.92172 3303.82934,2575.89391 3303.16,2592.962 L3319.224,2592.962 C3325.24803,2592.962 3331.35564,2592.711 3337.547,2592.209 C3343.73836,2591.707 3349.7623,2591.12134 3355.619,2590.452 C3361.4757,2589.78266 3366.57931,2588.77867 3370.93,2587.44 C3371.93401,2582.75464 3372.60333,2577.73469 3372.938,2572.38 C3373.27267,2567.02531 3373.44,2562.00536 3373.44,2557.32 C3373.10533,2539.24791 3370.93002,2526.44704 3366.914,2518.917 C3362.89798,2511.38696 3355.53539,2507.622 3344.826,2507.622 L3344.826,2507.622 Z" fill="#AB3CC1"></path>
    </g>
</svg>
